<svg xmlns="http://www.w3.org/2000/svg" width="102" height="89">
    <path fill-rule="evenodd" fill="#FFF" d="M52.305 88.518a2.003 2.003 0 0 1-2.61 0C21.516 64.364 0 47.454 0 27.372 0 12.504 10.537 0 25.649 0c7.895 0 15.099 3.027 20.834 8.754A35.007 35.007 0 0 1 51 14.313a34.906 34.906 0 0 1 4.517-5.559C61.252 3.027 68.456 0 76.351 0c7.219 0 13.814 2.911 18.568 8.196C99.485 13.272 102 20.082 102 27.372c0 20.054-21.449 36.934-49.695 61.146zM76.351 3.941c-6.858 0-12.882 2.519-17.904 7.488-3.826 3.785-5.612 7.648-5.629 7.687a1.997 1.997 0 0 1-1.817 1.162h-.004a1.992 1.992 0 0 1-1.815-1.162c-.017-.039-1.802-3.902-5.629-7.687-5.022-4.969-11.046-7.488-17.904-7.488-12.351 0-21.665 10.073-21.665 23.431 0 17.917 20.407 34.275 47.016 57.05C76.263 62.8 98.016 45.694 98.016 27.372c0-13.358-9.314-23.431-21.665-23.431zm8.186 44.909a2.007 2.007 0 0 1-2.8.309c-.86-.679-1-1.919-.313-2.769 5.883-7.281 8.623-13.324 8.623-19.018 0-2.899-.724-5.861-2.039-8.341a1.96 1.96 0 0 1 .839-2.66 2.003 2.003 0 0 1 2.689.83c1.632 3.079 2.495 6.595 2.495 10.171 0 6.636-3.017 13.461-9.494 21.478zm.031-34.728a1.982 1.982 0 0 1-1.992-1.97c0-1.088.893-1.971 1.992-1.971 1.1 0 1.993.883 1.993 1.971s-.893 1.97-1.993 1.97zM70.125 53.531H58.969v11.035a1.981 1.981 0 0 1-1.992 1.971H45.023c-1.1 0-1.992-.882-1.992-1.971V53.531H31.875c-1.1 0-1.992-.882-1.992-1.97V39.738c0-1.088.892-1.97 1.992-1.97h11.156V26.733c0-1.088.892-1.97 1.992-1.97h11.954c1.1 0 1.992.882 1.992 1.97v11.035h11.156c1.1 0 1.992.882 1.992 1.97v11.823c0 1.088-.892 1.97-1.992 1.97zm-1.992-11.822H56.977a1.982 1.982 0 0 1-1.993-1.971V28.704h-7.968v11.034a1.982 1.982 0 0 1-1.993 1.971H33.867v7.881h11.156c1.101 0 1.993.883 1.993 1.971v11.035h7.968V51.561c0-1.088.892-1.971 1.993-1.971h11.156v-7.881z"/>
</svg>
