<svg xmlns="http://www.w3.org/2000/svg" width="76" height="89">
    <path fill-rule="evenodd" fill="#FFF" d="M12.418 47.059a5.589 5.589 0 0 0 2.828 4.386 18.19 18.19 0 0 0 4.274 1.737 45.617 45.617 0 0 1-5.023 11.117c-2.554 4.097-2.584 9.041-.08 13.566 3.689 6.669 11.836 11.15 20.275 11.15 5.795 0 10.949-2.675 14.506-7.531 5.089-6.947 6.216-17.197 3.016-27.413-2.967-9.473 1.001-14.525 3.626-16.698a11.83 11.83 0 0 0 8.251 3.343c6.576 0 11.907-5.344 11.907-11.937 0-6.592-5.331-11.934-11.907-11.934-6.577 0-11.908 5.344-11.908 11.934 0 .928.116 1.828.316 2.695-4.959 3.634-10.681 11.816-6.677 24.607 2.525 8.065 1.752 16.275-2.024 21.428-1.601 2.188-4.482 4.794-9.107 4.794-5.984 0-11.913-3.162-14.417-7.691-.923-1.672-1.688-4.2-.095-6.756 3.556-5.706 5.337-11.031 6.181-14.286a17.773 17.773 0 0 0 5.764-1.931 5.571 5.571 0 0 0 2.894-4.221c7.867-7.128 11.5-19.973 11.708-20.724a3.353 3.353 0 0 0-1.653-3.847c1.089-9.642-2.472-14.501-4.621-16.482.162-.926-.205-1.917-1.019-2.448l-3.947-2.586c-1.031-.675-2.328-.335-2.893.766l-1.881 3.644c-.566 1.099-.067 2.274 1.117 2.623l4.463 1.32c1.133.334 2.487-.208 3.128-1.202 1.779 1.878 4.341 6.059 3.458 14.035a3.344 3.344 0 0 0-2.607 2.39c-1.071 3.858-4.168 11.828-8.767 16.605-1.464-.566-3.147-.539-4.639.258-.973.521-1.924.784-2.899.803h-.202c-1.028-.021-2.032-.312-3.06-.888-1.456-.82-3.114-.892-4.577-.374-4.496-4.799-7.527-12.599-8.582-16.404a3.35 3.35 0 0 0-2.606-2.388c-.884-7.976 1.677-12.157 3.458-14.036.641.994 1.995 1.536 3.127 1.202l4.464-1.32c1.182-.349 1.684-1.525 1.116-2.622l-1.879-3.645c-.567-1.1-1.863-1.441-2.893-.765L8.38 3.92c-.812.531-1.18 1.522-1.017 2.449-2.146 1.98-5.71 6.838-4.622 16.481a3.356 3.356 0 0 0-1.653 3.848c.205.736 3.728 13.171 11.33 20.361zm51.673-22.942a4.658 4.658 0 0 1 4.652 4.662 4.658 4.658 0 0 1-4.652 4.663 4.657 4.657 0 0 1-4.653-4.663 4.657 4.657 0 0 1 4.653-4.662z"/>
</svg>
