<svg xmlns="http://www.w3.org/2000/svg" width="90" height="90">
    <path fill-rule="evenodd" fill="#FFF" d="M86.27 21.688 90 17.959 72.041 0l-3.729 3.729 2.624 2.625-9.318 9.319-9.586-9.586-3.73 3.729 5.247 5.247-41.414 41.415 4.414 4.414-8.829 8.829 4.415 4.415L0 86.27 3.729 90l12.135-12.135 4.415 4.415 8.828-8.829 4.415 4.414 41.414-41.414 5.247 5.247 3.73-3.73-9.586-9.586 9.318-9.319 2.625 2.625zM20.279 74.82l-5.1-5.099 5.1-5.099 5.099 5.099-5.099 5.099zm13.243-4.414L19.594 56.478l5.323-5.324 3.214 3.213 3.729-3.729-3.213-3.213 3.772-3.772 3.213 3.213 3.73-3.73-3.214-3.212 3.772-3.773L53.848 50.08 33.522 70.406zM57.578 46.35 43.65 32.422l3.771-3.772 3.214 3.213 3.73-3.729-3.214-3.214 6.127-6.127 13.929 13.928L57.578 46.35zm13.019-21.698-5.25-5.25 9.319-9.318 5.25 5.25-9.319 9.318z"/>
</svg>
